<svg version="1.1" id="Layer_1" xmlns="http://www.w3.org/2000/svg"
     xmlns:xlink="http://www.w3.org/1999/xlink"
     x="0px" y="0px" viewBox="0 0 512 512" xml:space="preserve">

  <!-- white circle + inner layout -->
  <path fill="#FFFFFF" opacity="1.000000" stroke="none" 
    d="
    M135.347839,49.244385 
      C152.107162,39.865421 169.085495,31.836224 187.344635,27.060295 
      C199.480576,23.885971 211.841537,21.550074 224.139496,19.022324 
      C241.344223,16.369787 258.850800,16.369787 276.113983,17.276354 
      C299.888062,18.524837 323.211121,23.789639 345.100372,33.244221 
      C360.958801,40.093918 376.296906,48.390583 391.141022,57.257473 
      C400.419006,62.799534 408.405579,70.528862 416.870758,77.400948 
      C432.398743,90.006630 444.997162,105.382050 455.973206,121.846863 
      C464.036255,133.942001 471.004761,146.982422 476.774780,160.330505 
      C482.661957,173.949600 487.065094,188.300308 491.017242,202.634201 
      C493.670105,212.255615 495.051086,222.354614 495.838287,232.331696 
      C496.840057,245.028687 497.132385,257.827484 496.884796,270.565918 
      C496.558868,287.335449 493.476654,303.749664 489.094086,319.965240 
      C484.295135,337.721375 477.693451,354.738678 468.941376,370.862000 
      C461.384583,384.783417 452.957916,398.199677 442.372986,410.101257 
      C436.139404,417.110229 430.223907,424.474701 423.420166,430.888855 
      C409.220795,444.275208 393.767517,456.091156 376.721344,465.755432 
      C357.335632,476.746094 336.926910,485.216278 315.228821,490.221436 
      C304.212341,492.762604 292.984131,494.892456 281.737854,495.803406 
      C267.554291,496.952271 253.220734,497.411163 239.015640,496.765472 
      C227.562408,496.244873 216.062714,494.287170 204.833344,491.827118 
      C183.271851,487.103607 162.596466,479.617157 143.189819,468.979248 
      C129.293823,461.362091 115.865921,452.980103 103.950813,442.418488 
      C96.931549,436.196625 89.575294,430.272034 83.158836,423.470154 
      C69.767792,409.274780 58.052086,393.764313 48.260918,376.791077 
      C36.285393,356.031219 27.931129,333.874237 22.437014,310.666412 
      C20.202499,301.227570 18.904827,291.483459 18.136909,281.802429 
      C17.221767,270.265381 17.183640,258.648865 17.034935,247.063324 
      C16.809669,229.512741 19.931133,212.332764 24.351049,195.489609 
      C29.038509,177.626907 35.226414,160.108475 44.615479,144.152390 
      C52.611282,130.564041 61.546684,117.456924 70.920990,104.768272 
      C84.876045,85.879326 102.937172,71.173096 121.935577,57.626747 
      C126.117516,54.644924 130.658951,52.167263 135.347839,49.244385 
    M352.000000,192.500000 
      C352.000000,181.838074 352.076111,171.175262 351.954102,160.514725 
      C351.917053,157.278107 351.752899,153.936310 350.929535,150.833038 
      C346.398010,133.754501 336.414520,121.333015 319.110718,116.120682 
      C312.980255,114.274040 306.383728,113.182327 299.989563,113.134186 
      C263.341034,112.858238 226.688889,112.908012 190.039169,113.089989 
      C183.885391,113.120544 177.546646,113.601196 171.621399,115.138359 
      C150.982010,120.492790 136.249527,138.125610 136.119736,159.495987 
      C135.769684,217.135269 135.982849,274.778137 136.043228,332.419495 
      C136.046783,335.821564 136.258545,339.327393 137.082077,342.606995 
      C141.092606,358.578522 150.362747,370.379852 165.943878,376.287415 
      C171.426010,378.365936 177.508453,379.709625 183.350418,379.836151 
      C203.165756,380.265289 222.996338,379.959015 242.820648,380.041412 
      C246.024765,380.054749 247.641785,379.743347 248.244324,375.686646 
      C249.029282,370.401733 251.193588,365.216431 253.390457,360.266144 
      C260.028595,345.308075 271.318451,334.591125 285.188507,326.315216 
      C290.481018,323.157318 290.489990,322.901764 285.976349,318.525360 
      C277.176025,309.992584 272.565094,299.437805 272.108765,287.405273 
      C271.498352,271.308929 277.001190,257.670685 290.013763,247.410782 
      C298.007294,241.108215 306.968140,237.605499 317.029053,237.038132 
      C329.592499,236.329651 340.900635,239.977768 352.000000,248.804810 
      C352.000000,229.561188 352.000000,211.530594 352.000000,192.500000 
    M293.504028,339.953369 
      C274.886108,349.562439 265.236572,365.483276 262.108521,385.606354 
      C260.636200,395.077911 263.915253,400.731354 273.701599,400.855591 
      C304.516846,401.246887 335.340485,401.076630 366.160187,400.949036 
      C374.466919,400.914673 378.740082,395.077576 378.088470,388.720154 
      C376.823944,376.382416 372.935303,365.366425 365.204559,355.430450 
      C353.175568,339.970184 336.978546,333.232361 318.226257,333.350616 
      C310.160767,333.401428 302.119354,337.276184 293.504028,339.953369 
    M340.969635,260.453461 
      C329.808289,250.653656 315.256989,249.707642 303.508575,257.122803 
      C288.163116,266.808350 281.926605,285.978271 293.029602,302.884186 
      C299.580444,312.858795 309.424683,317.924744 321.027222,317.779602 
      C331.579651,317.647583 340.842804,312.465149 346.415192,303.590363 
      C350.008484,297.867615 352.532501,290.461182 352.592102,283.783051 
      C352.670013,275.051056 348.879120,266.779205 340.969635,260.453461 
    Z"/>

  <!-- white text-lines etc inside the icon -->
  <path fill="#FFFFFF" opacity="1.000000" stroke="none" d="
    M304.043610,173.842163 
      C302.492554,178.565552 299.290497,180.034882 294.911652,180.028198 
      C261.284515,179.976883 227.657272,180.000885 194.030075,179.999222 
      C187.371658,179.998901 183.335968,176.669312 183.000977,170.912888 
      C182.687408,165.524475 187.413742,160.495941 193.264359,160.006378 
      C193.760330,159.964859 194.262726,160.000046 194.762146,160.000046 
      C227.556992,160.000000 260.351868,159.980362 293.146667,160.013367 
      C301.692688,160.021957 306.552094,166.068253 304.043610,173.842163 
    Z"/>
  <path fill="#FFFFFF" opacity="1.000000" stroke="none" d="
    M292.701263,211.000000 
      C301.206177,210.664139 307.552734,218.035477 304.033630,225.462357 
      C302.318329,229.082443 299.764618,231.011536 295.712921,231.009567 
      C261.259003,230.992783 226.805038,231.015228 192.351135,230.983688 
      C187.126389,230.978897 182.980606,226.962479 183.056076,221.735535 
      C183.131516,216.512131 186.193298,212.035492 192.876694,211.038834 
      C194.505051,210.795990 196.200195,211.000153 197.864624,211.000137 
      C229.322556,210.999969 260.780487,211.000000 292.701263,211.000000 
    Z"/>
  <path fill="#FFFFFF" opacity="1.000000" stroke="none" d="
    M189.045563,281.529297 
      C184.559036,278.749268 182.207672,274.141632 183.233063,270.392792 
      C184.573685,265.491394 188.600235,262.030396 193.260834,262.016693 
      C208.417206,261.972137 223.573837,262.025238 238.730240,261.985626 
      C243.697830,261.972656 247.280197,264.180450 248.839096,268.802399 
      C250.457489,273.600830 248.472961,278.528870 244.404938,281.004211 
      C243.498688,281.555634 242.332184,281.957916 241.285385,281.958221 
      C223.968094,281.963348 206.650772,281.893250 189.045563,281.529297 
    Z"/>

</svg>
