<svg width="61" height="62" viewBox="0 0 61 62" fill="none" xmlns="http://www.w3.org/2000/svg">
<ellipse cx="30.1056" cy="31" rx="29.1056" ry="30" fill="black" stroke="white" stroke-width="2"/>
<path d="M29.8145 7L7.79132 50.3L8.76151 51.4L9.2466 51.9L9.82871 52.5L10.9929 53.6L12.2542 54.7L12.7393 55.1L13.3214 55.5L14.4856 56.3L15.7468 57.1L16.426 57.5L16.814 57.7L17.0081 57.8H17.1051L22.2471 48.4H37.9641L43.6882 57.5L45.1435 56.8L46.4047 55.9L48.8302 54L50.9646 51.9L52.9049 49.7L29.8145 7Z" fill="white"/>
<path d="M30.2027 31L34.8238 40.3H25.5815L30.2027 31Z" fill="black"/>
<path d="M34.8352 16.75H31.197L16.2804 45.625H9.00403" stroke="black" stroke-width="2" stroke-linecap="round" stroke-linejoin="round"/>
<path d="M39.9287 24.625H33.7438L48.6604 51.25H39.2011" stroke="black" stroke-width="2" stroke-linecap="round" stroke-linejoin="round"/>
</svg>